<svg viewBox="0 0 100 100" xmlns="http://www.w3.org/2000/svg">
  <!-- Antennae -->
  <path d="M47,20 C42,12 40,8 38,9" stroke="#FFFFFF" stroke-width="1.5" stroke-linecap="round" fill="none" />
  <path d="M53,20 C58,12 60,8 62,9" stroke="#FFFFFF" stroke-width="1.5" stroke-linecap="round" fill="none" />

  <!-- Body -->
  <circle cx="50" cy="22" r="3" fill="#FFFFFF" />
  <rect x="48.5" y="27" width="3" height="15" rx="1.5" fill="#FFFFFF" />
  <path d="M49,44 L51,44 L50,60 Z" fill="#FFFFFF" />

  <!-- Left Top Wing -->
  <path d="M47,28 L15,18 L24,42 L47,38 Z" fill="#FFFFFF" />
  <path d="M45,39 L26,44 L32,53 L45,46 Z" fill="#FFFFFF" />

  <!-- Left Bottom Wing -->
  <path d="M45,48 L33,56 L38,66 L45,54 Z" fill="#FFFFFF" />

  <!-- Right Top Wing -->
  <path d="M53,28 L85,18 L76,42 L53,38 Z" fill="#FFFFFF" />
  <path d="M55,39 L74,44 L68,53 L55,46 Z" fill="#FFFFFF" />

  <!-- Right Bottom Wing -->
  <path d="M55,48 L67,56 L62,66 L55,54 Z" fill="#FFFFFF" />

  <!-- Text "BENCHMADE" -->
  <text x="50" y="85" font-family="'Helvetica Neue', Helvetica, Arial, sans-serif" font-weight="900" font-size="9" fill="#FFFFFF" text-anchor="middle" letter-spacing="1">BENCHMADE</text>
</svg>
