<svg width="271" height="128" viewBox="0 0 271 128" fill="none" xmlns="http://www.w3.org/2000/svg">
<g clip-path="url(#clip0_6797_385157)">
<path d="M143.42 73.6356H135.82C135.751 73.6356 135.694 73.6917 135.694 73.761V114.621C135.694 114.691 135.751 114.747 135.82 114.747H143.42C143.49 114.747 143.546 114.691 143.546 114.621V73.761C143.546 73.6917 143.49 73.6356 143.42 73.6356Z" fill="#DD0031"/>
<path d="M115.553 83.1862C112.013 83.1862 108.758 84.4299 106.155 86.516C106.073 86.5812 105.954 86.5261 105.954 86.4208V83.8331C105.954 83.7654 105.899 83.7078 105.829 83.7078H98.6809C98.613 83.7078 98.5552 83.7629 98.5552 83.8331V124.819C98.5552 124.887 98.6105 124.944 98.6809 124.944H105.829C105.897 124.944 105.954 124.889 105.954 124.819V112.673C105.954 112.312 106.367 112.109 106.658 112.325C109.172 114.177 112.24 115.271 115.556 115.271C124.069 115.271 130.97 108.09 130.97 99.231C130.97 90.3724 124.069 83.1913 115.556 83.1913L115.553 83.1862ZM114.608 108.538C110.218 108.538 107.025 104.354 107.025 99.1909C107.025 94.0282 110.218 90.1442 114.608 90.1442C118.998 90.1442 122.555 92.5563 122.555 99.1909C122.555 105.825 118.998 108.538 114.608 108.538Z" fill="#DD0031"/>
<path d="M173.276 83.9911V86.1149C173.276 86.4809 172.851 86.689 172.565 86.4634C169.975 84.4098 166.742 83.1862 163.234 83.1862C154.722 83.1862 147.82 90.3674 147.82 99.226C147.82 108.085 153.238 115.266 163.234 115.266C166.372 115.266 169.291 114.508 171.725 112.874C172.396 112.422 172.944 112.711 172.944 113.518V114.461C172.944 114.616 173.07 114.744 173.228 114.744H180.135C180.291 114.744 180.419 114.619 180.419 114.461V83.9911C180.419 83.8356 180.293 83.7078 180.135 83.7078H173.558C173.402 83.7078 173.274 83.8331 173.274 83.9911H173.276ZM163.996 108.538C159.242 108.538 155.73 104.354 155.73 99.1909C155.73 94.0282 159.242 90.1994 163.996 90.1994C168.751 90.1994 172.474 93.5141 172.474 99.1909C172.474 104.868 168.751 108.538 163.996 108.538Z" fill="#DD0031"/>
<path d="M185.968 83.9911L197.027 112.392C197.1 112.578 197.103 112.781 197.037 112.966C196.64 114.087 195.006 117.991 191.519 117.991H186.518C186.45 117.991 186.392 118.046 186.392 118.117V124.591C186.392 124.658 186.448 124.716 186.518 124.716H191.833C195.484 124.716 200.751 122.056 203.207 115.682C205.548 109.612 214.262 86.1876 215.082 83.9861C215.112 83.9033 215.051 83.8206 214.963 83.8206H207.476C207.423 83.8206 207.376 83.8532 207.358 83.9059L200.786 102.939C200.786 102.939 200.763 103.017 200.625 103.015C200.487 103.012 200.487 102.932 200.487 102.932L193.472 83.9059C193.455 83.8557 193.407 83.8231 193.354 83.8231H186.083C185.995 83.8231 185.935 83.9109 185.968 83.9936V83.9911Z" fill="#DD0031"/>
<path fill-rule="evenodd" clip-rule="evenodd" d="M191.264 11.5379C190.037 17.4939 185.977 22.358 182.484 21.5638C178.896 20.7697 177.197 14.6152 178.424 8.65919C179.074 5.50445 180.386 3.1852 181.996 1.81945C180.929 1.72307 179.849 1.67383 178.757 1.67383C159.178 1.67383 143.307 17.5024 143.307 37.0279C143.307 44.0482 145.359 50.5906 148.897 56.0912C153.761 38.0612 167.436 23.4477 180.597 24.8396C188.811 25.733 193.154 32.4831 192.587 42.9061C191.903 55.8676 185.145 68.3131 177.062 72.3423C177.624 72.3687 178.189 72.382 178.757 72.382C198.335 72.382 214.206 56.5534 214.206 37.0279C214.206 31.4617 212.917 26.196 210.619 21.5117C209.771 22.561 208.733 23.5821 207.503 24.5419C201.649 29.1081 193.907 30.2993 191.263 26.5272C188.62 22.6558 191.924 15.3101 197.778 10.8431C198.668 10.1337 199.558 9.53905 200.437 9.05392C197.48 6.77181 194.153 4.94546 190.559 3.68049C191.552 5.64651 191.876 8.3751 191.264 11.5379ZM193.342 51.5424C197.42 48.5358 200.339 47.684 202.116 47.1653C203.508 46.7593 204.2 46.5574 204.2 45.6856C204.2 43.5018 198.535 39.4319 194.57 39.0348V42.6084C194.381 45.6856 194.003 48.6636 193.342 51.5424ZM165.68 26.031C164.263 27.7185 160.864 26.9244 158.41 24.7405C155.955 22.5566 155.483 19.7772 156.899 18.1889C158.221 16.5014 160.864 16.5014 163.319 18.6852C165.868 20.8691 167.001 24.3434 165.68 26.031ZM173.515 22.0602C176.158 20.7698 176.442 15.5087 174.553 11.0417C172.571 6.57466 169.266 4.88713 166.623 6.07833C163.979 7.36879 163.035 11.1409 165.017 15.6079C166.906 20.1742 170.871 23.2514 173.515 22.0602Z" fill="#DD0031"/>
<path fill-rule="evenodd" clip-rule="evenodd" d="M163.725 69.0554C162.61 67.1486 161.942 64.5488 162.186 61.0719C162.658 53.3291 166.907 47.8694 168.984 47.1746C170.211 46.7775 171.816 47.5716 171.722 49.2592C171.648 50.3859 171.068 51.3758 170.355 52.592C169.247 54.4829 167.818 56.9207 167.473 61.2704C167.284 64.5462 168.323 68.3184 171.816 68.5169C179.369 68.914 186.45 53.8254 187.017 43.4024C187.489 34.3692 184.373 30.2993 179.936 29.8029C168.56 28.6512 156.659 45.6055 153.559 61.8959C156.481 64.8404 159.918 67.2754 163.725 69.0554ZM182.105 37.248C183.899 37.248 183.899 38.9356 183.899 39.6304C183.804 42.7077 180.217 46.4798 178.517 43.6011C177.573 41.318 179.933 37.3473 182.105 37.248Z" fill="#DD0031"/>
<path d="M136.268 40.5382C136.268 43.3078 134.016 45.553 131.239 45.553C128.462 45.553 126.211 43.3078 126.211 40.5382C126.211 37.7686 128.462 35.5234 131.239 35.5234C134.016 35.5234 136.268 37.7686 136.268 40.5382Z" fill="#DD0031"/>
<path d="M115.903 49.8155C115.903 52.5851 113.652 54.8303 110.875 54.8303C108.097 54.8303 105.846 52.5851 105.846 49.8155C105.846 47.0459 108.097 44.8007 110.875 44.8007C113.652 44.8007 115.903 47.0459 115.903 49.8155Z" fill="#DD0031"/>
<path d="M98.5551 63.6061C98.5551 66.3757 96.3039 68.6209 93.5268 68.6209C90.7497 68.6209 88.4985 66.3757 88.4985 63.6061C88.4985 60.8365 90.7497 58.5913 93.5268 58.5913C96.3039 58.5913 98.5551 60.8365 98.5551 63.6061Z" fill="#DD0031"/>
<path d="M84.2244 80.6563C84.2244 83.4259 81.9731 85.6711 79.1961 85.6711C76.419 85.6711 74.1678 83.4259 74.1678 80.6563C74.1678 77.8867 76.419 75.6415 79.1961 75.6415C81.9731 75.6415 84.2244 77.8867 84.2244 80.6563Z" fill="#DD0031"/>
<path d="M72.6593 99.9631C72.6593 102.733 70.408 104.978 67.6309 104.978C64.8539 104.978 62.6026 102.733 62.6026 99.9631C62.6026 97.1936 64.8539 94.9484 67.6309 94.9484C70.408 94.9484 72.6593 97.1936 72.6593 99.9631Z" fill="#DD0031"/>
<path d="M64.3625 120.524C64.3625 123.293 62.1113 125.538 59.3342 125.538C56.5571 125.538 54.3059 123.293 54.3059 120.524C54.3059 117.754 56.5571 115.509 59.3342 115.509C62.1113 115.509 64.3625 117.754 64.3625 120.524Z" fill="#DD0031"/>
<path d="M50.5346 102.471C50.5346 105.24 48.2834 107.485 45.5063 107.485C42.7293 107.485 40.478 105.24 40.478 102.471C40.478 99.7009 42.7293 97.4558 45.5063 97.4558C48.2834 97.4558 50.5346 99.7009 50.5346 102.471Z" fill="#DD0031"/>
<path d="M31.6784 89.1814C31.6784 91.951 29.4272 94.1962 26.6501 94.1962C23.873 94.1962 21.6218 91.951 21.6218 89.1814C21.6218 86.4118 23.873 84.1666 26.6501 84.1666C29.4272 84.1666 31.6784 86.4118 31.6784 89.1814Z" fill="#DD0031"/>
<path d="M10.0566 81.4085C10.0566 84.1781 7.80539 86.4233 5.02832 86.4233C2.25126 86.4233 0 84.1781 0 81.4085C0 78.6389 2.25126 76.3938 5.02832 76.3938C7.80539 76.3938 10.0566 78.6389 10.0566 81.4085Z" fill="#DD0031"/>
</g>
<defs>
<clipPath id="clip0_6797_385157">
<rect width="215.089" height="123.865" fill="white" transform="translate(0 1.67383)"/>
</clipPath>
</defs>
</svg>
