<?xml version="1.0" encoding="UTF-8" standalone="no"?>
<!-- Creator: CorelDRAW X6 -->

<svg
   xmlns:dc="http://purl.org/dc/elements/1.1/"
   xmlns:cc="http://creativecommons.org/ns#"
   xmlns:rdf="http://www.w3.org/1999/02/22-rdf-syntax-ns#"
   xmlns:svg="http://www.w3.org/2000/svg"
   xmlns="http://www.w3.org/2000/svg"
   xmlns:sodipodi="http://sodipodi.sourceforge.net/DTD/sodipodi-0.dtd"
   xmlns:inkscape="http://www.inkscape.org/namespaces/inkscape"
   xml:space="preserve"
   width="10.416667in"
   height="1.5593462in"
   version="1.1"
   style="clip-rule:evenodd;fill-rule:evenodd;image-rendering:optimizeQuality;shape-rendering:geometricPrecision;text-rendering:geometricPrecision"
   viewBox="0 0 10417.995 1559.545"
   id="svg36"
   sodipodi:docname="Citibank old logo.svg"
   inkscape:version="0.92.4 (5da689c313, 2019-01-14)"><metadata
   id="metadata40"><rdf:RDF><cc:Work
       rdf:about=""><dc:format>image/svg+xml</dc:format><dc:type
         rdf:resource="http://purl.org/dc/dcmitype/StillImage" /><dc:title></dc:title></cc:Work></rdf:RDF></metadata><sodipodi:namedview
   pagecolor="#ffffff"
   bordercolor="#666666"
   borderopacity="1"
   objecttolerance="10"
   gridtolerance="10"
   guidetolerance="10"
   inkscape:pageopacity="0"
   inkscape:pageshadow="2"
   inkscape:window-width="1920"
   inkscape:window-height="1001"
   id="namedview38"
   showgrid="false"
   fit-margin-top="0"
   fit-margin-left="0"
   fit-margin-right="0"
   fit-margin-bottom="0"
   inkscape:zoom="1"
   inkscape:cx="178.34462"
   inkscape:cy="28.012258"
   inkscape:window-x="-9"
   inkscape:window-y="-9"
   inkscape:window-maximized="1"
   inkscape:current-layer="svg36" />
 <defs
   id="defs4">
  <style
   type="text/css"
   id="style2">
   <![CDATA[
    .fil1 {fill:#373435}
    .fil0 {fill:#FEFEFE}
   ]]>
  </style>
 </defs>
 <g
   id="Layer_x0020_1"
   transform="matrix(4.0081909,0,0,4.0081909,-155.61322,-4545.2885)">
  <metadata
   id="CorelCorpID_0Corel-Layer" />
  
  <path
   class="fil1"
   d="m 2610,1140 c -16,0 -28,13 -28,28 0,16 13,28 28,28 16,0 28,-13 28,-28 0,-16 -13,-28 -28,-28 z m 0,54 c -14,0 -25,-11 -25,-26 0,-15 11,-26 25,-26 15,0 25,11 25,26 0,14 -11,26 -25,26 z"
   id="path9"
   inkscape:connector-curvature="0"
   style="fill:#373435" />
  <path
   class="fil1"
   d="m 2368,1134 c -131,0 -238,87 -238,194 0,107 106,194 238,194 131,0 238,-87 238,-194 0,-107 -106,-194 -238,-194 z"
   id="path11"
   inkscape:connector-curvature="0"
   style="fill:#373435" />
  <path
   class="fil1"
   d="m 2368,1138 c -129,0 -233,85 -233,190 0,105 104,190 233,190 129,0 233,-85 233,-190 0,-105 -104,-190 -233,-190 z"
   id="path13"
   inkscape:connector-curvature="0"
   style="fill:#373435" />
  <polygon
   class="fil0"
   points="2368,1175 2394,1304 2564,1328 2394,1352 2368,1481 2341,1352 2171,1328 2341,1304 "
   id="polygon15"
   style="fill:#fefefe" />
  <polygon
   class="fil1"
   points="437,1511 512,1162 443,1162 369,1511 "
   id="polygon17"
   style="fill:#373435" />
  <polygon
   class="fil1"
   points="779,1511 848,1511 923,1162 854,1162 "
   id="polygon19"
   style="fill:#373435" />
  <polygon
   class="fil1"
   points="639,1511 702,1223 805,1223 818,1162 543,1162 530,1223 633,1223 571,1511 "
   id="polygon21"
   style="fill:#373435" />
  <polygon
   class="fil1"
   points="1616,1511 1668,1268 1766,1511 1834,1511 1909,1162 1840,1162 1788,1401 1694,1162 1622,1162 1547,1511 "
   id="polygon23"
   style="fill:#373435" />
  <polygon
   class="fil1"
   points="1979,1326 2135,1162 2055,1162 1905,1320 2008,1511 2079,1511 "
   id="polygon25"
   style="fill:#373435" />
  <path
   class="fil1"
   d="m 1480,1162 h -77 l -201,349 h 77 l 41,-74 h 136 l 10,74 h 65 l -50,-349 v 0 z m -128,216 76,-139 19,139 z"
   id="path27"
   inkscape:connector-curvature="0"
   style="fill:#373435" />
  <path
   class="fil1"
   d="m 1174,1324 c 59,-20 64,-64 64,-84 1,-34 -25,-78 -88,-78 H 979 l -75,349 h 184 v 0 c 79,0 122,-57 128,-87 14,-70 -19,-90 -42,-100 z m -31,81 c -5,22 -33,47 -76,47 h -82 l 20,-93 h 100 v 0 c 31,0 43,25 38,47 v 0 z m 22,-144 c -3,24 -35,38 -61,38 h -86 l 16,-77 h 90 v 0 c 35,0 43,20 41,39 z"
   id="path29"
   inkscape:connector-curvature="0"
   style="fill:#373435" />
  <path
   class="fil1"
   d="m 187,1467 c -21,0 -98,-20 -74,-133 25,-113 93,-127 129,-127 25,0 71,16 75,75 h 72 v 0 c 3,-18 -7,-130 -130,-130 -162,0 -194,102 -214,179 -20,77 5,188 128,192 123,3 179,-70 192,-131 h -72 v 0 c -18,67 -84,75 -105,75 v 0 z"
   id="path31"
   inkscape:connector-curvature="0"
   style="fill:#373435" />
  <path
   class="fil1"
   d="m 2614,1169 c 5,-1 9,-3 9,-9 0,-6 -3,-9 -11,-9 h -13 v 33 h 3 v -15 h 9 l 10,15 h 3 z m -5,-3 h -7 v -13 h 9 v 0 c 4,0 8,2 8,7 0,6 -6,6 -11,6 v 0 z"
   id="path33"
   inkscape:connector-curvature="0"
   style="fill:#373435" />
 </g>
</svg>