<?xml version="1.0" encoding="utf-8"?>
<!-- Generator: Adobe Adobe Illustrator 24.2.0, SVG Export Plug-In . SVG Version: 6.00 Build 0)  -->
<svg version="1.1" id="Layer_1" xmlns="http://www.w3.org/2000/svg" xmlns:xlink="http://www.w3.org/1999/xlink" x="0px" y="0px"
	 width="1733.57px" height="303.28px" viewBox="0 0 1733.57 303.28" style="enable-background:new 0 0 1733.57 303.28;"
	 xml:space="preserve">
<style type="text/css">
	.st0{fill:#031B6A;}
	.st1{fill:#FFFFFF;}
	.st2{fill:#FF0D32;}
</style>
<g>
	<path class="st0" d="M633.75,90.81c-8.44-12.14-19.87-22.18-33.26-29.18c-13.23-6.9-28.39-10.82-44.5-10.82h-238.5v180h238.5
		c16.11,0,31.27-3.92,44.5-10.82c13.4-7,24.82-17.05,33.26-29.18c9.94-14.3,15.74-31.5,15.74-50S643.69,105.11,633.75,90.81z
		 M548.54,190.81H366.49v-100h182.05c28.69,0,51.95,22.39,51.95,50S577.23,190.81,548.54,190.81z"/>
	<g>
		<polygon class="st0" points="680.16,230.81 941.28,230.81 941.28,190.81 729.16,190.81 729.16,160.81 941.28,160.81 
			941.28,120.81 729.16,120.81 729.16,90.81 941.28,90.81 941.28,50.81 680.16,50.81 		"/>
		<polygon class="st0" points="1036.18,50.81 987.18,50.81 987.18,190.81 987.18,230.81 1036.18,230.81 1248.3,230.81 
			1248.3,190.81 1036.18,190.81 		"/>
		<path class="st0" d="M1682.41,230.81h51.16l-141.5-180h-12.59h-38.56h-14.25l-134.52,180h52.81l38.11-51h159.26L1682.41,230.81z
			 M1512.96,139.81l47.72-63.85l50.2,63.85H1512.96z"/>
		<polygon class="st0" points="1447.92,90.81 1447.92,50.81 1330.92,50.81 1281.92,50.81 1164.92,50.81 1164.92,90.81 
			1281.92,90.81 1281.92,230.81 1330.92,230.81 1330.92,90.81 		"/>
	</g>
</g>
<polygon class="st0" points="107.26,151.64 24.28,16.9 217.9,151.64 24.28,286.38 "/>
<polygon class="st1" points="0,303.28 13.87,268.99 61.37,151.64 13.87,34.29 0,0 13.87,9.66 24.28,16.9 107.26,151.64 
	24.28,286.38 13.87,293.62 "/>
<polygon class="st2" points="0,303.28 0,0 13.87,34.29 61.37,151.64 13.87,268.99 "/>
</svg>
