<!-- Created with Inkscape (http://www.inkscape.org/) -->
<svg width="250.85mm" height="52.917mm" version="1.1" viewBox="0 0 250.85 52.917" xmlns="http://www.w3.org/2000/svg">
 <g transform="translate(-252.92 -175.31)">
  <path d="m502.05 226.52h-247.42v-49.486h247.42z" fill="#fff"/>
  <g transform="matrix(5.2938 0 0 -5.2938 502.05 226.52)">
   <path d="m0 0v0.325zm-47.061-0.324v9.996h47.386v-9.996z" fill="#fff"/>
  </g>
  <path d="m502.04 177.03h-197.92v49.486h197.92z" fill="#0f0c0d"/>
  <g transform="matrix(5.2938 0 0 -5.2938 410.63 198.72)">
   <path d="m0 0c-0.241 0.223-0.554 0.336-0.989 0.336-0.794 0-1.287-0.416-1.287-1.029 0-0.272 0.109-0.519 0.304-0.698 0.24-0.222 0.547-0.338 0.983-0.338 0.435 0 0.748 0.117 0.989 0.338 0.195 0.179 0.296 0.426 0.296 0.698 0 0.267-0.101 0.511-0.296 0.693m-0.932-2.459c-0.612 0-0.993 0.208-1.344 0.484v-1.895h-1.06v4.789h1.06v-0.356c0.36 0.281 0.853 0.442 1.344 0.442 0.761 0 1.371-0.21 1.815-0.591 0.36-0.31 0.543-0.699 0.543-1.138 0-1.023-0.943-1.735-2.358-1.735" fill="#fff"/>
  </g>
  <path d="m445.23 211.4h-6.1567v-17.544h6.1567zm-3.0333-20.286c-1.2065 0-2.3186-0.33313-3.0545-0.93637-0.60324-0.44418-0.92587-1.0159-0.92587-1.604 0-0.58224 0.32263-1.16 0.92587-1.6304 0.73529-0.57773 1.8475-0.94237 3.0015-0.94237 1.202 0 2.3028 0.36464 3.0492 0.94237 0.60324 0.47119 0.92137 1.0489 0.92137 1.6304 0 1.4136-1.7575 2.541-3.9175 2.541" fill="#fff"/>
  <g transform="matrix(5.2938 0 0 -5.2938 458.4 212)">
   <path d="m0 0c-0.916 0-1.441 0.175-1.913 0.594l-0.064 0.059 0.083 0.045 0.716 0.382 0.045 0.029 0.045-0.037c0.3-0.19 0.572-0.366 1.088-0.366 0.372 0 0.639 0.08 0.785 0.199 0.055 0.043 0.082 0.087 0.082 0.145 0 0.271-0.54 0.353-0.931 0.412l-0.136 0.014c-0.807 0.117-1.643 0.316-1.643 0.993 0 0.234 0.11 0.439 0.316 0.616 0.345 0.271 1.019 0.441 1.709 0.441 0.788 0 1.368-0.206 1.694-0.558l0.056-0.06-0.808-0.396-0.054-0.028-0.045 0.035c-0.254 0.199-0.509 0.301-0.899 0.301-0.37 0-0.684-0.102-0.684-0.293 0-0.288 0.558-0.36 0.966-0.411 0.063-0.015 0.127-0.015 0.172-0.03 0.789-0.117 1.571-0.331 1.571-1.006 0-0.795-1.181-1.08-2.151-1.08" fill="#fff"/>
  </g>
  <g transform="matrix(5.2938 0 0 -5.2938 320.73 211.25)">
   <path d="m0 0v1.922c0 0.231-0.079 0.404-0.232 0.534-0.213 0.18-0.53 0.215-0.76 0.215-0.769 0-0.991-0.359-0.991-0.986v-1.686h-1.155v3.286h1.155v-0.374c0.307 0.28 0.735 0.46 1.358 0.46 0.581 0 1.077-0.152 1.385-0.41 0.266-0.225 0.393-0.512 0.393-0.865v-2.096h-1.153" fill="#fff"/>
  </g>
  <g transform="matrix(5.2938 0 0 -5.2938 328.4 197.38)">
   <path d="m0 0v0.684h0.761v0.892h1.159v-0.892h1.215v-0.684h-1.215v-1.512c0-0.32 0.136-0.521 0.654-0.521 0.206 0 0.415 0.027 0.561 0.1v-0.676c-0.244-0.08-0.58-0.108-0.853-0.108-1.243 0-1.521 0.383-1.521 1.139v1.578z" fill="#fff"/>
  </g>
  <g transform="matrix(5.2938 0 0 -5.2938 365.84 200.63)">
   <path d="m0 0h-2.674c0.094 0.253 0.625 0.727 1.441 0.737 0.82 0.012 1.219-0.332 1.39-0.58 0.076-0.135-0.049-0.157-0.157-0.157m-0.025-1.069c-0.363-0.216-0.607-0.303-1.078-0.314-0.552-0.012-1.05 0.147-1.316 0.406-0.104 0.1-0.165 0.218-0.19 0.333l3.591 1e-3c0.188 3e-3 0.286 0.079 0.286 0.312-7e-3 0.395-0.186 0.809-0.496 1.114-0.411 0.405-1.163 0.652-1.988 0.652-0.85 0-1.598-0.29-2.054-0.741-0.301-0.296-0.464-0.651-0.464-1.035 0-0.397 0.163-0.767 0.464-1.062 0.446-0.435 1.213-0.701 2.083-0.701 0.384 0 0.855 0.052 1.217 0.178 0.164 0.056 0.318 0.127 0.466 0.215 0.149 0.089 0.288 0.196 0.408 0.321 0.074 0.078 0.14 0.166 0.191 0.262 0.038 0.08-0.097 0.061-0.183 0.062l-0.93 1e-3 -7e-3 -4e-3" fill="#fff"/>
  </g>
  <g transform="matrix(5.2938 0 0 -5.2938 390.45 193.72)">
   <path d="m0 0s-0.219 0.046-0.436 0.046c-0.52 0-1.05-0.329-1.34-0.602v0.516h-1.155v-3.284h1.155v1.642c0 0.642 0.419 0.95 1.265 0.95 0.109 0 0.247-0.015 0.418-0.041l0.093-0.023z" fill="#fff"/>
  </g>
  <g transform="matrix(5.2938 0 0 -5.2938 436.42 193.72)">
   <path d="m0 0s-0.218 0.046-0.435 0.046c-0.521 0-1.051-0.329-1.342-0.602v0.516h-1.154v-3.284h1.154v1.642c0 0.642 0.419 0.95 1.267 0.95 0.109 0 0.246-0.015 0.418-0.041l0.092-0.023z" fill="#fff"/>
  </g>
  <g transform="matrix(5.2938 0 0 -5.2938 490.96 200.63)">
   <path d="m0 0h-2.674c0.093 0.253 0.624 0.727 1.44 0.737 0.821 0.012 1.219-0.332 1.391-0.58 0.075-0.135-0.05-0.157-0.157-0.157m-0.025-1.069c-0.364-0.216-0.608-0.303-1.079-0.314-0.552-0.012-1.05 0.147-1.316 0.406-0.103 0.1-0.165 0.218-0.189 0.333l3.59 1e-3c0.188 3e-3 0.287 0.079 0.287 0.312-7e-3 0.395-0.187 0.809-0.496 1.114-0.413 0.405-1.163 0.652-1.989 0.652-0.85 0-1.598-0.29-2.054-0.741-0.3-0.296-0.464-0.651-0.464-1.035 0-0.397 0.164-0.767 0.464-1.062 0.447-0.435 1.214-0.701 2.084-0.701 0.383 0 0.855 0.052 1.216 0.178 0.164 0.056 0.319 0.127 0.467 0.215 0.149 0.089 0.288 0.196 0.408 0.321 0.075 0.078 0.14 0.166 0.191 0.262 0.038 0.08-0.098 0.061-0.184 0.062l-0.93 1e-3 -6e-3 -4e-3" fill="#fff"/>
  </g>
  <g transform="matrix(5.2938 0 0 -5.2938 294.22 199.17)">
   <path d="m0 0c-0.026-0.052-0.117-0.063-0.205-0.064h-3.249c0.025 0.061 0.068 0.119 0.068 0.119 0.307 0.451 1.017 0.768 1.721 0.769 0.734 3e-3 1.33-0.246 1.635-0.679 0.038-0.068 0.048-0.112 0.03-0.145m1.249-0.184c-0.184 0.913-1.252 1.838-2.939 1.838h-2e-3c-1.488 0-2.57-0.789-2.92-1.599-7e-3 -0.016-0.035-0.088-0.045-0.119h-2.819v-0.829c1.407 0 7.704-1e-3 7.893 0 0.389 3e-3 0.668 0.01 0.789 0.159 0.083 0.1 0.096 0.271 0.043 0.55" fill="#fff"/>
  </g>
  <g transform="matrix(5.2938 0 0 -5.2938 285.18 208.45)">
   <path d="m0 0c-0.659 0-1.295 0.272-1.626 0.67h-1.256c0.33-0.794 1.33-1.565 2.896-1.563 1.605 2e-3 2.252 0.563 2.673 1.112 0.021 0.029 0.033 0.047 0.047 0.074h-1.473c-0.292-0.235-0.847-0.293-1.261-0.293" fill="#fff"/>
  </g>
  <g transform="matrix(5.2938 0 0 -5.2938 299.4 207.28)">
   <path d="m0 0c-0.421-0.55-1.068-1.111-2.673-1.113-1.566-2e-3 -2.566 0.769-2.896 1.563h1.256c0.331-0.398 0.967-0.669 1.626-0.669 0.414 0 0.969 0.058 1.261 0.293h1.473c-0.014-0.028-0.027-0.045-0.047-0.074m-8.456 5.715v-4.246h2.82c0.01 0.031 0.038 0.102 0.045 0.119 0.349 0.809 1.431 1.599 2.92 1.599h1e-3c1.688 0 2.756-0.925 2.939-1.838 0.054-0.279 0.041-0.451-0.043-0.551-0.12-0.149-0.399-0.156-0.788-0.159-0.186-1e-3 -6.364 0-7.894 0v-4.272h9.348v9.348z" fill="#34b56a"/>
  </g>
  <g transform="matrix(5.2938 0 0 -5.2938 294.22 199.17)">
   <path d="m0 0c0.018 0.033 8e-3 0.077-0.03 0.145-0.305 0.433-0.901 0.682-1.635 0.679-0.704-1e-3 -1.414-0.318-1.721-0.769 0 0-0.043-0.058-0.068-0.119h3.249c0.088 1e-3 0.179 0.012 0.205 0.064" fill="#34b56a"/>
  </g>
  <g transform="matrix(5.2938 0 0 -5.2938 298.01 201.71)">
   <path d="m0 0c0.06 0.044 0.08 0.103 0.077 0.204-0.016 0.436-0.772 1.603-2.487 1.603-1.651 0-2.255-0.959-2.4-1.253 0 0-0.036-0.065-0.065-0.138h0.192c0.017 0.043 0.033 0.075 0.057 0.119 0.134 0.249 0.753 1.103 2.216 1.103 1.706 0 2.305-1.157 2.305-1.406 0-0.04-0.01-0.06-0.024-0.071-0.047-0.045-0.112-0.068-0.538-0.068h-7.525v-0.169h7.524c0.552 0 0.615 0.037 0.668 0.076" fill="#34b56a"/>
  </g>
  <g transform="matrix(5.2938 0 0 -5.2938 296.62 206.86)">
   <path d="m0 0-0.018-0.024c-0.666-0.828-2.052-0.811-2.209-0.807-1.187 0.021-2.004 0.628-2.29 1.205h0.194c0.274-0.475 0.963-1.006 2.102-1.036 0.053-2e-3 1.309-0.052 1.993 0.662z" fill="#34b56a"/>
  </g>
  <g transform="matrix(5.2938 0 0 -5.2938 257.45 224.08)">
   <path d="m0 0h0.079v0.179h0.064c0.042 0 0.072-5e-3 0.089-0.014 0.028-0.017 0.042-0.051 0.042-0.104v-0.037l2e-3 -0.015c0-1e-3 1e-3 -3e-3 1e-3 -5e-3 0-1e-3 1e-3 -3e-3 1e-3 -4e-3h0.075l-3e-3 5e-3c-2e-3 4e-3 -3e-3 0.012-4e-3 0.024s-1e-3 0.024-1e-3 0.035v0.032c0 0.023-8e-3 0.047-0.025 0.071-0.016 0.024-0.042 0.038-0.077 0.044 0.027 4e-3 0.049 0.012 0.065 0.022 0.029 0.019 0.044 0.049 0.044 0.089 0 0.056-0.023 0.095-0.07 0.114-0.026 0.011-0.067 0.016-0.123 0.016h-0.159zm0.228 0.244c-0.017-6e-3 -0.043-9e-3 -0.076-9e-3h-0.073v0.163h0.07c0.043 0 0.076-5e-3 0.095-0.016 0.02-0.012 0.03-0.034 0.03-0.066 0-0.035-0.015-0.059-0.046-0.072m0.229 0.272c-0.079 0.081-0.176 0.121-0.291 0.121-0.113 0-0.21-0.04-0.289-0.121-0.081-0.08-0.121-0.178-0.121-0.29 0-0.114 0.039-0.213 0.12-0.294 0.079-0.08 0.176-0.121 0.29-0.121 0.115 0 0.212 0.041 0.291 0.121 0.081 0.081 0.121 0.18 0.121 0.294 0 0.113-0.04 0.21-0.121 0.29m-0.041-0.04c0.07-0.069 0.104-0.153 0.104-0.25 0-0.099-0.034-0.184-0.104-0.254-0.067-0.068-0.151-0.103-0.25-0.103-0.098 0-0.182 0.035-0.251 0.103-0.068 0.07-0.102 0.155-0.102 0.254 0 0.097 0.034 0.181 0.103 0.25 0.069 0.07 0.152 0.106 0.25 0.106 0.099 0 0.182-0.036 0.25-0.106" fill="#fff"/>
  </g>
 </g>
</svg>
