<svg xmlns="http://www.w3.org/2000/svg" viewBox="0 0 60 76">
  <path d="M 1 0 L 27 0 L 27 9 L 9 9 L 9 21 L 22 21 L 22 30 L 9 30 L 9 52 L 10 52 L 10 55 L 11 55 L 11 56 L 12 56 L 12 57 L 14 57 L 14 58 L 16 58 L 16 59 L 18 59 L 18 60 L 20 60 L 20 61 L 22 61 L 22 62 L 24 62 L 24 63 L 26 63 L 26 64 L 28 64 L 28 65 L 32 65 L 32 64 L 34 64 L 34 63 L 36 63 L 36 62 L 38 62 L 38 61 L 40 61 L 40 60 L 42 60 L 42 59 L 44 59 L 44 58 L 46 58 L 46 57 L 48 57 L 48 56 L 49 56 L 49 55 L 50 55 L 50 52 L 51 52 L 51 30 L 38 30 L 38 21 L 51 21 L 51 9 L 33 9 L 33 0 L 59 0 L 59 1 L 60 1 L 60 55 L 59 55 L 59 58 L 58 58 L 58 59 L 57 59 L 57 61 L 56 61 L 56 62 L 55 62 L 55 63 L 54 63 L 54 64 L 52 64 L 52 65 L 50 65 L 50 66 L 48 66 L 48 67 L 47 67 L 47 68 L 45 68 L 45 69 L 43 69 L 43 70 L 41 70 L 41 71 L 39 71 L 39 72 L 37 72 L 37 73 L 36 73 L 36 74 L 34 74 L 34 75 L 32 75 L 32 76 L 28 76 L 28 75 L 26 75 L 26 74 L 24 74 L 24 73 L 23 73 L 23 72 L 21 72 L 21 71 L 19 71 L 19 70 L 17 70 L 17 69 L 15 69 L 15 68 L 13 68 L 13 67 L 11 67 L 11 66 L 10 66 L 10 65 L 8 65 L 8 64 L 6 64 L 6 63 L 5 63 L 5 62 L 4 62 L 4 61 L 3 61 L 3 60 L 2 60 L 2 58 L 1 58 L 1 55 L 0 55 L 0 1 L 1 1 L 1 0 Z" fill="#FFFFFF" fill-rule="evenodd" />
</svg>