<?xml version="1.0" encoding="UTF-8"?>
<svg width="139px" height="41px" viewBox="0 0 139 41" version="1.1" xmlns="http://www.w3.org/2000/svg" xmlns:xlink="http://www.w3.org/1999/xlink">
    <g id="Desktop1" stroke="none" stroke-width="1" fill="none" fill-rule="evenodd">
        <g id="GapInc_Newsroom_Home_Desktop1" transform="translate(-276.000000, -26.000000)" fill="#a6bbc8" fill-rule="nonzero">
            <g id="gapInc-Copy" transform="translate(276.000000, 26.000000)">
                <path d="M24.2978412,28.6548036 C22.7598363,29.135609 17.9095921,29.3777166 16.6078167,29.3777166 C4.5408446,29.3777166 0.518241342,21.9132992 0.518241342,15.5315464 C0.518241342,5.53778611 7.85308393,0 14.596515,0 C18.5010035,0 20.0390084,1.32477211 22.1684248,1.32477211 C22.9969035,1.32477211 23.3512478,1.08351696 23.7064297,0.361456482 L24.5340707,0.361456482 L24.5340707,8.66984063 L23.8245445,8.66984063 C23.1150183,3.37160469 18.3820511,1.08351696 14.596515,1.08351696 C9.03674457,1.08351696 4.65895935,6.13964525 4.65895935,13.8453178 C4.65895935,22.0326481 9.51004128,28.052092 16.0164052,28.052092 C18.0277068,28.052092 20.6304199,27.5712867 20.6304199,25.0436488 L20.6304199,22.0335006 C20.6304199,18.6618959 19.920056,17.4581776 17.6725249,17.4581776 L16.606979,17.4581776 L16.606979,16.6159158 L27.7281953,16.6159158 L27.7281953,17.4581776 C25.0073674,17.4581776 24.2970035,18.7820972 24.2970035,21.1912388 L24.2970035,28.6548036 L24.2978412,28.6548036 Z M43.7004936,24.6813398 C43.7004936,26.7273199 43.819446,27.4502329 44.647087,27.4502329 C45.1203837,27.4502329 45.3574509,26.9694275 45.8307476,25.7648568 L46.6592263,25.7648568 C46.4221591,27.9310382 45.2401738,29.2566628 43.3461493,29.2566628 C41.8081444,29.2566628 40.9796657,28.5337498 40.3882542,26.8475212 C38.7312969,28.6539512 37.6665887,29.2566628 35.8915166,29.2566628 C33.1706887,29.2566628 31.0412723,27.2089777 31.0412723,24.6813398 C31.0412723,19.7445604 37.665751,19.8647617 40.3874165,18.2995869 L40.3874165,16.9765198 C40.3874165,14.5682307 38.9675264,12.7626533 36.6010428,12.7626533 C34.7078559,12.7626533 32.814669,13.9663716 32.1051428,16.494862 L31.2766641,16.2544593 C31.9870281,13.0039085 34.4707887,10.9570759 37.5476362,10.9570759 C40.3865788,10.9570759 43.6988182,12.5222506 43.6988182,17.2177749 L43.6988182,24.6813398 L43.7004936,24.6813398 Z M40.3882542,19.2629025 C37.1941296,20.707876 34.3543493,20.707876 34.3543493,24.199682 C34.3543493,26.0052594 35.5371723,27.4502329 36.8389477,27.4502329 C37.9036559,27.4502329 39.6778903,26.6079711 40.3882542,25.1621451 L40.3882542,19.2629025 Z M51.2724033,14.9288347 C51.2724033,12.640747 50.7991066,12.280143 48.3145083,12.280143 L48.3145083,11.4370287 L53.7570017,10.9553709 L54.4665279,10.9553709 L54.4665279,13.8444653 C56.7140591,11.6774314 58.2529017,10.9553709 60.382318,10.9553709 C64.8773803,10.9553709 68.0723426,14.8077809 68.0723426,19.984963 C68.0723426,25.281494 64.5230361,29.2558103 59.6727918,29.2558103 C57.7796049,29.2558103 56.4786672,28.6530987 54.4673656,27.2081252 L54.4673656,36.6008788 C54.4673656,38.6468589 54.9406623,39.4899732 57.3071459,39.4899732 L57.3071459,40.332235 L48.3145083,40.332235 L48.3145083,39.4899732 C50.5628771,39.4899732 51.2724033,39.0091679 51.2724033,37.0825366 L51.2724033,14.9288347 Z M54.4665279,26.0052594 C55.7683033,27.330884 57.5425377,28.1731458 59.1986574,28.1731458 C62.2746672,28.1731458 64.5221984,24.8015411 64.5221984,20.5885271 C64.5221984,15.8921503 62.2738295,12.5213981 59.079705,12.5213981 C57.4235853,12.5213981 56.1226476,13.2434586 54.4656902,15.1700899 L54.4656902,26.0052594 L54.4665279,26.0052594 Z M84.3989851,23.4776215 C84.3989851,26.8483737 85.2266261,27.9318907 87.592272,27.9318907 L87.592272,28.6548036 L77.6547163,28.6548036 L77.6547163,27.9318907 C79.9030851,27.9318907 80.7307261,26.9694275 80.7307261,23.4776215 L80.7307261,6.01944392 C80.7307261,2.40743657 80.0203622,1.56517477 77.6547163,1.56517477 L77.6547163,0.721207981 L87.592272,0.721207981 L87.592272,1.56517477 C85.2266261,1.56517477 84.3989851,2.64869172 84.3989851,6.01944392 L84.3989851,23.4776215 Z M109.243293,24.9234475 C109.243293,27.2098302 109.715752,27.9318907 112.082236,27.9318907 L112.082236,28.6548036 L102.972321,28.6548036 L102.972321,27.9318907 C105.339642,27.9318907 105.930216,27.330884 105.930216,25.7657093 L105.930216,16.7352646 C105.930216,13.8453178 104.037029,12.7626533 102.143842,12.7626533 C100.487723,12.7626533 98.9505555,13.8461703 97.2944359,16.134258 L97.2944359,24.5611385 C97.2944359,27.2098302 97.6479424,27.9327432 100.250656,27.9327432 L100.250656,28.6556561 L91.260531,28.6556561 L91.260531,27.9327432 C93.5072244,27.9327432 93.9813588,27.691488 93.9813588,24.5611385 L93.9813588,14.8086334 C93.9813588,12.7626533 93.5072244,12.2809955 91.260531,12.2809955 L91.260531,11.4378812 L96.4651195,10.9562234 L97.2944359,10.9562234 L97.2944359,14.3278281 C99.3048998,12.0397403 101.316201,10.9562234 103.446455,10.9562234 C106.285398,10.9562234 109.243293,13.003056 109.243293,17.0958686 L109.243293,24.9234475 Z M129.709816,16.9765198 L128.882175,16.9765198 C128.173486,13.8453178 126.043232,11.919539 123.203452,11.919539 C119.89205,11.919539 117.526405,14.8086334 117.526405,19.0233524 C117.526405,23.839078 120.4843,27.8125418 123.913816,27.8125418 C125.92428,27.8125418 128.409716,26.6088236 130.184788,24.2005345 L130.184788,25.4051053 C128.409716,27.9327432 125.806165,29.2583678 122.730993,29.2583678 C117.644519,29.2583678 114.213328,25.6455079 114.213328,20.4691783 C114.213328,15.1709424 118.116978,10.9570759 122.96806,10.9570759 C125.570773,10.9570759 126.871711,11.9203915 127.819142,11.9203915 C128.174324,11.9203915 128.646783,11.558935 128.883013,10.9570759 L129.710654,10.9570759 L129.710654,16.9765198 L129.709816,16.9765198 Z M138.111042,26.8475212 C138.111042,28.1731458 137.046334,29.2566628 135.862673,29.2566628 C134.556575,29.2533826 133.498575,28.1766923 133.495352,26.8475212 C133.495352,25.6438029 134.56006,24.5594335 135.862673,24.5594335 C137.046334,24.560286 138.111042,25.6438029 138.111042,26.8475212 Z" id="Shape"></path>
            </g>
        </g>
    </g>
</svg>
