<svg id="svg" version="1.1" xmlns="http://www.w3.org/2000/svg" xmlns:xlink="http://www.w3.org/1999/xlink" width="400" height="107.71869639794168" viewBox="0, 0, 400,107.71869639794168"><g id="svgg"><path id="path0" d="M49.452 1.776 C 48.291 2.753,47.341 3.947,47.341 4.428 C 47.341 4.910,46.711 6.105,45.941 7.083 C 45.157 8.081,44.095 11.198,43.525 14.178 C 42.965 17.101,42.270 19.660,41.980 19.866 C 41.689 20.072,40.575 23.482,39.503 27.444 C 38.432 31.407,36.245 37.427,34.644 40.823 C 33.043 44.220,31.342 48.696,30.865 50.772 C 28.767 59.897,21.742 70.791,17.358 71.718 C 16.302 71.941,14.820 72.469,14.065 72.891 C 11.680 74.223,9.349 75.351,6.518 76.544 C 1.277 78.752,-0.659 81.886,0.357 86.513 C 1.617 92.250,13.759 91.906,17.612 86.025 C 24.161 76.029,34.824 77.310,41.134 88.851 C 44.605 95.199,44.839 95.370,50.021 95.359 C 57.861 95.343,58.944 94.406,56.528 89.733 L 55.423 87.597 58.057 89.768 C 62.572 93.490,66.350 92.232,74.775 84.201 L 79.654 79.551 78.805 74.008 C 77.403 64.851,73.743 62.804,66.406 67.072 C 57.658 72.162,53.279 78.340,54.371 84.054 C 54.790 86.242,53.996 85.679,51.453 81.982 C 49.885 79.704,48.035 78.262,43.960 76.142 C 37.703 72.887,37.459 72.410,38.147 64.810 C 38.544 60.436,38.843 59.573,40.294 58.622 C 41.222 58.014,42.579 56.165,43.310 54.511 C 44.708 51.353,46.826 49.400,48.854 49.400 C 51.440 49.400,60.832 44.407,61.648 42.598 C 62.671 40.333,66.530 34.686,69.249 31.477 C 70.848 29.592,71.355 28.320,71.355 26.201 C 71.355 24.665,71.637 23.234,71.981 23.021 C 74.397 21.529,71.660 7.866,68.172 4.010 C 64.202 -0.379,53.528 -1.653,49.452 1.776 M62.128 11.985 C 65.271 19.507,57.343 39.418,52.830 35.334 C 50.507 33.232,51.430 26.938,55.465 17.362 C 59.181 8.542,60.309 7.631,62.128 11.985 M252.659 32.718 C 249.029 34.590,251.109 35.651,258.450 35.670 C 261.992 35.679,262.605 36.525,260.765 38.864 C 259.986 39.855,259.348 41.065,259.348 41.553 C 259.348 42.041,258.871 42.918,258.288 43.501 C 257.705 44.084,256.227 46.344,255.004 48.524 C 253.174 51.787,252.421 52.526,250.747 52.708 C 248.167 52.987,242.472 58.390,241.035 61.921 C 240.459 63.336,239.723 64.494,239.398 64.494 C 239.074 64.494,237.607 66.115,236.139 68.096 C 234.671 70.077,232.198 73.003,230.644 74.599 C 229.090 76.194,227.390 78.510,226.867 79.745 C 226.343 80.979,224.754 83.070,223.335 84.391 C 216.507 90.748,214.117 93.348,214.366 94.150 C 214.515 94.632,214.823 95.875,215.050 96.913 C 215.425 98.622,215.747 98.799,218.482 98.799 C 222.698 98.799,223.414 98.390,225.025 95.062 C 225.805 93.451,227.516 91.157,228.828 89.963 C 230.139 88.770,232.180 85.870,233.363 83.519 C 234.546 81.169,236.399 78.231,237.482 76.992 C 238.565 75.752,239.451 74.430,239.451 74.055 C 239.451 73.679,240.520 72.433,241.826 71.286 C 243.132 70.139,244.846 68.158,245.633 66.884 C 246.421 65.609,249.036 63.018,251.443 61.126 L 255.822 57.685 258.027 60.197 C 259.240 61.579,260.828 64.055,261.556 65.701 C 262.284 67.346,263.311 68.858,263.839 69.061 C 264.368 69.263,265.011 70.554,265.269 71.929 C 265.527 73.304,266.300 75.667,266.988 77.180 C 267.675 78.693,268.244 80.529,268.253 81.259 C 268.261 81.990,268.833 83.225,269.524 84.004 C 270.215 84.783,271.618 88.662,272.641 92.624 C 273.665 96.587,275.338 101.600,276.359 103.765 L 278.216 107.701 282.024 107.710 C 287.640 107.723,288.620 105.354,284.721 101.191 C 282.878 99.223,281.304 95.132,281.304 92.309 C 281.304 90.635,280.882 89.628,279.931 89.035 C 278.873 88.374,278.559 87.435,278.559 84.933 C 278.559 81.897,277.434 79.114,273.252 71.807 C 272.786 70.992,272.400 69.598,272.394 68.709 C 272.389 67.820,271.503 65.968,270.425 64.593 C 265.336 58.098,265.493 57.915,276.524 57.467 C 284.435 57.147,285.693 56.930,287.052 55.653 C 287.901 54.855,289.425 54.202,290.437 54.202 C 296.949 54.202,299.167 36.458,293.046 33.327 C 289.968 31.752,255.538 31.233,252.659 32.718 M233.962 33.949 C 233.962 35.445,237.117 35.977,240.312 35.020 C 243.907 33.943,242.603 32.958,237.564 32.944 C 234.836 32.936,233.962 33.180,233.962 33.949 M244.421 33.374 C 242.879 34.023,244.275 34.991,246.753 34.991 C 248.380 34.991,249.079 34.711,248.889 34.134 C 248.591 33.226,245.872 32.764,244.421 33.374 M285.701 37.379 C 292.898 39.919,293.108 40.933,287.644 46.775 C 284.810 49.803,284.277 50.086,281.381 50.090 C 279.377 50.093,277.461 50.595,276.158 51.458 C 273.009 53.543,266.623 53.361,263.281 51.090 C 259.745 48.688,259.872 46.780,263.808 43.151 C 265.506 41.586,266.895 39.746,266.895 39.061 C 266.895 37.345,267.999 36.789,272.384 36.300 C 279.165 35.544,280.898 35.684,285.701 37.379 M377.050 61.235 C 376.007 62.084,373.683 64.168,371.886 65.866 C 360.129 76.977,358.723 78.016,352.830 79.941 C 350.067 80.844,349.228 81.440,349.228 82.500 C 349.228 83.756,348.925 83.842,345.891 83.439 C 343.342 83.101,342.350 83.242,341.690 84.037 C 340.445 85.537,339.623 85.317,339.623 83.485 C 339.623 82.610,340.703 80.631,342.024 79.088 C 345.150 75.436,345.408 71.411,342.638 69.500 C 341.656 68.822,339.034 66.647,336.813 64.666 C 332.512 60.830,329.086 59.907,327.270 62.095 C 326.799 62.663,324.619 64.218,322.425 65.550 C 317.503 68.540,312.660 73.821,311.105 77.895 C 308.008 86.003,320.733 96.655,326.244 90.566 C 327.821 88.822,328.062 88.839,331.112 90.909 C 334.522 93.224,339.815 93.290,343.129 91.059 C 345.644 89.367,350.179 87.822,352.631 87.822 C 353.472 87.822,355.987 86.432,358.220 84.734 C 360.453 83.036,362.862 81.647,363.574 81.647 C 364.286 81.647,366.058 80.372,367.512 78.813 C 376.268 69.424,377.418 68.396,378.243 69.221 C 378.881 69.859,378.798 70.508,377.869 72.127 C 376.454 74.592,376.172 85.589,377.461 88.038 C 380.900 94.572,400.035 87.459,399.989 79.663 C 399.967 75.871,399.162 75.812,393.413 79.177 C 386.027 83.500,384.582 83.448,385.124 78.876 C 385.349 76.975,386.164 74.618,386.935 73.638 C 392.388 66.705,383.711 55.817,377.050 61.235 M156.822 65.129 C 155.837 66.217,155.703 67.214,156.062 70.789 C 156.619 76.334,155.325 78.598,149.931 81.520 L 146.051 83.621 146.148 79.032 C 146.406 66.783,147.614 66.798,128.330 78.820 C 120.230 83.869,120.069 83.816,120.069 76.123 C 120.069 67.386,117.495 66.074,107.376 69.651 C 104.734 70.585,101.860 71.350,100.989 71.352 C 98.320 71.357,87.822 76.792,87.822 78.169 C 87.822 81.760,96.566 82.508,100.191 79.227 C 102.121 77.481,110.197 78.067,109.907 79.931 C 108.730 87.502,108.836 87.995,112.254 90.874 L 115.470 93.584 119.656 92.000 C 121.958 91.130,124.614 90.255,125.557 90.056 C 126.501 89.857,129.317 88.193,131.816 86.357 C 137.369 82.278,136.900 82.249,138.209 86.751 C 140.827 95.759,148.369 95.060,159.397 84.788 C 164.621 79.922,166.134 72.941,163.312 66.724 C 161.800 63.394,159.012 62.709,156.822 65.129 M294.193 67.072 C 282.069 74.126,278.666 82.847,285.501 89.350 C 290.031 93.659,293.849 92.507,302.563 84.201 L 307.441 79.551 306.592 74.008 C 305.191 64.851,301.531 62.804,294.193 67.072 M333.440 69.717 C 337.865 71.487,337.855 73.410,333.395 77.926 C 331.381 79.965,328.794 81.917,327.646 82.264 C 317.059 85.457,315.295 79.780,324.494 72.124 C 329.177 68.227,329.500 68.140,333.440 69.717 M69.999 76.678 C 71.880 79.069,71.775 79.352,68.152 81.650 C 64.025 84.267,62.792 83.557,63.453 78.942 C 64.163 73.989,67.088 72.977,69.999 76.678 M297.787 76.678 C 299.668 79.069,299.563 79.352,295.939 81.650 C 291.812 84.267,290.580 83.557,291.241 78.942 C 291.950 73.989,294.876 72.977,297.787 76.678 " stroke="none" fill="#000000" fill-rule="evenodd"></path></g></svg>